<?xml version="1.0" encoding="UTF-8" standalone="no"?>
<svg width="42px" height="61px" viewBox="0 0 42 61" version="1.1" xmlns="http://www.w3.org/2000/svg" xmlns:xlink="http://www.w3.org/1999/xlink">
    <!-- Generator: Sketch 41.2 (35397) - http://www.bohemiancoding.com/sketch -->
    <title>Group</title>
    <desc>Created with Sketch.</desc>
    <defs></defs>
    <g id="Page-1" stroke="none" stroke-width="1" fill="none" fill-rule="evenodd" stroke-linecap="round" stroke-linejoin="round">
        <g id="Group" transform="translate(1.000000, 1.000000)" stroke="#000000" stroke-width="2">
            <path d="M40,20.5 C40,31.545 31.046,40.5 20,40.5 C8.955,40.5 0,31.545 0,20.5 C0,9.455 8.955,0.5 20,0.5 C31.046,0.5 40,9.455 40,20.5 L40,20.5 Z" id="Stroke-4774"></path>
            <path d="M20,40.5 L20,28.5" id="Stroke-4775"></path>
            <polyline id="Stroke-4776" points="12 28.5 16 32.5 20 28.5 24 32.5 28 28.5"></polyline>
            <path d="M14,46.5 L26,46.5" id="Stroke-4777"></path>
            <path d="M14,50.5 L26,50.5" id="Stroke-4778"></path>
            <path d="M14,54.5 L26,54.5" id="Stroke-4779"></path>
            <path d="M20,54.5 L20,58.5" id="Stroke-4780"></path>
        </g>
    </g>
</svg>