<?xml version="1.0" encoding="UTF-8" standalone="no"?>
<svg width="30px" height="30px" viewBox="0 0 30 30" version="1.1" xmlns="http://www.w3.org/2000/svg" xmlns:xlink="http://www.w3.org/1999/xlink">
    <!-- Generator: Sketch 41.2 (35397) - http://www.bohemiancoding.com/sketch -->
    <title>Shape</title>
    <desc>Created with Sketch.</desc>
    <defs></defs>
    <g id="Page-1" stroke="none" stroke-width="1" fill="none" fill-rule="evenodd">
        <path d="M15,0 C6.71625,0 0,6.71625 0,15 C0,23.28375 6.71625,30 15,30 C23.28375,30 30,23.28375 30,15 C30,6.71625 23.28375,0 15,0 Z M12.5,20 L10,20 L10,12.5 L12.5,12.5 L12.5,20 Z M11.25,11.38625 C10.49125,11.38625 9.875,10.76625 9.875,10 C9.875,9.235 10.49,8.61375 11.25,8.61375 C12.01,8.61375 12.625,9.235 12.625,10 C12.625,10.76625 12.00875,11.38625 11.25,11.38625 Z M21.25,20 L18.7525,20 L18.7525,16.42375 C18.7525,14.0725 16.25,14.27125 16.25,16.42375 L16.25,20 L13.75,20 L13.75,12.5 L16.25,12.5 L16.25,13.86625 C17.34,11.84625 21.25,11.69625 21.25,15.80125 L21.25,20 Z" id="Shape" fill="#4A4A4A"></path>
    </g>
</svg>