<?xml version="1.0" encoding="UTF-8" standalone="no"?>
<svg width="47px" height="61px" viewBox="0 0 47 61" version="1.1" xmlns="http://www.w3.org/2000/svg" xmlns:xlink="http://www.w3.org/1999/xlink">
    <!-- Generator: Sketch 41.2 (35397) - http://www.bohemiancoding.com/sketch -->
    <title>Group</title>
    <desc>Created with Sketch.</desc>
    <defs></defs>
    <g id="Page-1" stroke="none" stroke-width="1" fill="none" fill-rule="evenodd" stroke-linecap="round" stroke-linejoin="round">
        <g id="Group" transform="translate(1.000000, 1.000000)" stroke="#231F1F" stroke-width="2">
            <path d="M35,30.5 L38,30.5 C42.178,30.5 45,33.5 45,37.5 C45,41.5 42.178,44.5 38,44.5 L35,44.5" id="Stroke-1534"></path>
            <path d="M35,53.5 C35,56.438 32.785,58.5 30,58.5 L8,58.5 C5.215,58.5 3,56.285 3,53.5 L3,26.5 L35,26.5 L35,53.5 L35,53.5 Z" id="Stroke-1535"></path>
            <path d="M35.6138,0.6611 C38.2168,4.6301 34.3608,6.8071 33.4628,8.9361 C32.5118,11.1931 33.4368,13.3541 35.6938,14.3051 C43.0088,17.3891 45.1848,2.9771 35.6138,0.6611 L35.6138,0.6611 Z" id="Stroke-1536"></path>
            <path d="M27.9063,26.5 L34.8623,13.862" id="Stroke-1537"></path>
            <path d="M37.5508,14.7363 L33.0918,26.5003" id="Stroke-1538"></path>
            <polygon id="Stroke-1539" points="13 26.5 5 26.5 1 18.5 0 10.5 7 14.5"></polygon>
            <path d="M1,18.5 L7,14.5" id="Stroke-1540"></path>
            <polygon id="Stroke-1541" points="27 0.5 15 0.5 15 26.5 27 26.5"></polygon>
            <path d="M27,6.5 L21,6.5" id="Stroke-1542"></path>
            <path d="M27,10.5 L23,10.5" id="Stroke-1543"></path>
            <path d="M27,14.5 L21,14.5" id="Stroke-1544"></path>
            <path d="M27,20.5 L23,20.5" id="Stroke-1545"></path>
        </g>
    </g>
</svg>