<?xml version="1.0" encoding="UTF-8"?>
<svg width="161px" height="67px" viewBox="0 0 161 67" version="1.1" xmlns="http://www.w3.org/2000/svg" xmlns:xlink="http://www.w3.org/1999/xlink">
    <!-- Generator: Sketch 42 (36781) - http://www.bohemiancoding.com/sketch -->
    <title>Group 2</title>
    <desc>Created with Sketch.</desc>
    <defs></defs>
    <g id="Welcome" stroke="none" stroke-width="1" fill="none" fill-rule="evenodd">
        <g id="Desktop-HD" transform="translate(-640.000000, -34.000000)">
            <g id="Group-2" transform="translate(640.000000, 34.000000)">
                <path d="M13.0456327,59.7952209 C13.0456327,62.0304855 12.4866471,63.7679551 11.3686592,65.0076817 C10.2506713,66.2474083 8.66766166,66.8672623 6.61958291,66.8672623 C4.5464512,66.8672623 2.95404689,66.2521041 1.84232218,65.0217694 C0.730597475,63.7914347 0.17474346,62.0430081 0.17474346,59.7764373 C0.17474346,57.5098664 0.733729047,55.7692663 1.85171699,54.5545847 C2.96970493,53.3399031 4.56524082,52.7325714 6.63837253,52.7325714 C8.68018804,52.7325714 10.2585003,53.3492948 11.3733566,54.5827602 C12.4882129,55.8162255 13.0456327,57.5536951 13.0456327,59.7952209 Z M2.56102512,59.7952209 C2.56102512,61.4857572 2.90236646,62.767728 3.58505938,63.6411717 C4.26775229,64.5146154 5.27925002,64.9513307 6.61958291,64.9513307 C7.95365255,64.9513307 8.96045292,64.5193113 9.64001422,63.6552594 C10.3195755,62.7912076 10.6593511,61.5045409 10.6593511,59.7952209 C10.6593511,58.1109459 10.3227071,56.833671 9.64940903,55.9633579 C8.97611097,55.0930448 7.97244217,54.6578947 6.63837253,54.6578947 C5.2917764,54.6578947 4.27558132,55.0930448 3.58975678,55.9633579 C2.90393225,56.833671 2.56102512,58.1109459 2.56102512,59.7952209 Z M29.4427072,66.6794258 L26.690028,66.6794258 L19.9351598,55.7379542 L19.8600014,55.7379542 L19.9069754,56.3484225 C19.9946607,57.5130142 20.0385027,58.57741 20.0385027,59.5416417 L20.0385027,66.6794258 L17.999829,66.6794258 L17.999829,52.9485833 L20.7243239,52.9485833 L27.4604024,63.833704 L27.5167713,63.833704 C27.5042448,63.6896954 27.4791922,63.1653239 27.4416128,62.260574 C27.4040334,61.355824 27.3852439,60.6498792 27.3852439,60.1427183 L27.3852439,52.9485833 L29.4427072,52.9485833 L29.4427072,66.6794258 Z M46.8199736,66.6794258 L44.5746141,66.6794258 L44.5746141,54.8739066 L40.5348459,54.8739066 L40.5348459,52.9485833 L50.8597417,52.9485833 L50.8597417,54.8739066 L46.8199736,54.8739066 L46.8199736,66.6794258 Z M65.8006207,66.6794258 L63.5458664,66.6794258 L63.5458664,60.4902157 L57.2137647,60.4902157 L57.2137647,66.6794258 L54.9684052,66.6794258 L54.9684052,52.9485833 L57.2137647,52.9485833 L57.2137647,58.5648923 L63.5458664,58.5648923 L63.5458664,52.9485833 L65.8006207,52.9485833 L65.8006207,66.6794258 Z M79.1913562,66.6794258 L71.4218485,66.6794258 L71.4218485,52.9485833 L79.1913562,52.9485833 L79.1913562,54.8457312 L73.6672081,54.8457312 L73.6672081,58.583676 L78.8437482,58.583676 L78.8437482,60.4620402 L73.6672081,60.4620402 L73.6672081,64.7728861 L79.1913562,64.7728861 L79.1913562,66.6794258 Z M91.1666069,52.9485833 L95.2439543,52.9485833 C97.1354521,52.9485833 98.5023833,53.2240739 99.3447887,53.7750635 C100.187194,54.3260531 100.608391,55.1963532 100.608391,56.3859898 C100.608391,57.1874292 100.401707,57.8542419 99.9883332,58.3864477 C99.5749595,58.9186536 98.9799608,59.2536252 98.2033194,59.3913726 L98.2033194,59.4852908 C99.167858,59.6668669 99.877159,60.0253179 100.331244,60.5606543 C100.785328,61.0959908 101.012367,61.8207191 101.012367,62.7348609 C101.012367,63.9683263 100.581776,64.9341089 99.7205811,65.6322378 C98.8593859,66.3303666 97.6615597,66.6794258 96.1270664,66.6794258 L91.1666069,66.6794258 L91.1666069,52.9485833 Z M93.4119664,58.6212433 L95.5727726,58.6212433 C96.5122583,58.6212433 97.1980726,58.4725409 97.630236,58.1751318 C98.0623994,57.8777226 98.2784778,57.3721346 98.2784778,56.6583526 C98.2784778,56.0134444 98.0451757,55.5469886 97.5785645,55.2589713 C97.1119533,54.970954 96.3713365,54.8269475 95.356692,54.8269475 L93.4119664,54.8269475 L93.4119664,58.6212433 Z M93.4119664,60.4432566 L93.4119664,64.7916698 L95.7982481,64.7916698 C96.7377337,64.7916698 97.4470348,64.6116617 97.9261725,64.2516401 C98.4053102,63.8916185 98.6448754,63.323419 98.6448754,62.5470245 C98.6448754,61.8332425 98.4006128,61.3041752 97.9120803,60.9598067 C97.4235477,60.6154382 96.6813652,60.4432566 95.6855104,60.4432566 L93.4119664,60.4432566 Z M105.872616,66.6794258 L105.872616,52.9485833 L108.117975,52.9485833 L108.117975,64.7541025 L113.933362,64.7541025 L113.933362,66.6794258 L105.872616,66.6794258 Z M130.114356,59.7952209 C130.114356,62.0304855 129.555371,63.7679551 128.437383,65.0076817 C127.319395,66.2474083 125.736385,66.8672623 123.688306,66.8672623 C121.615175,66.8672623 120.02277,66.2521041 118.911046,65.0217694 C117.799321,63.7914347 117.243467,62.0430081 117.243467,59.7764373 C117.243467,57.5098664 117.802453,55.7692663 118.920441,54.5545847 C120.038428,53.3399031 121.633964,52.7325714 123.707096,52.7325714 C125.748912,52.7325714 127.327224,53.3492948 128.44208,54.5827602 C129.556936,55.8162255 130.114356,57.5536951 130.114356,59.7952209 Z M119.629749,59.7952209 C119.629749,61.4857572 119.97109,62.767728 120.653783,63.6411717 C121.336476,64.5146154 122.347974,64.9513307 123.688306,64.9513307 C125.022376,64.9513307 126.029176,64.5193113 126.708738,63.6552594 C127.388299,62.7912076 127.728075,61.5045409 127.728075,59.7952209 C127.728075,58.1109459 127.391431,56.833671 126.718133,55.9633579 C126.044835,55.0930448 125.041166,54.6578947 123.707096,54.6578947 C122.3605,54.6578947 121.344305,55.0930448 120.65848,55.9633579 C119.972656,56.833671 119.629749,58.1109459 119.629749,59.7952209 Z M140.912124,54.6766784 C139.621897,54.6766784 138.607268,55.1337424 137.868206,56.0478843 C137.129144,56.9620261 136.759618,58.2236481 136.759618,59.8327882 C136.759618,61.5170632 137.115052,62.7912076 137.825929,63.6552594 C138.536807,64.5193113 139.565528,64.9513307 140.912124,64.9513307 C141.494605,64.9513307 142.058288,64.8934151 142.60319,64.777582 C143.148092,64.661749 143.714906,64.5130467 144.303651,64.3314705 L144.303651,66.2567939 C143.226374,66.6637748 142.005061,66.8672623 140.639675,66.8672623 C138.629175,66.8672623 137.08531,66.2583653 136.008034,65.040553 C134.930757,63.8227408 134.392126,62.0805754 134.392126,59.8140046 C134.392126,58.3864406 134.653613,57.1373409 135.176593,56.0666679 C135.699573,54.9959949 136.455848,54.1757841 137.445439,53.6060108 C138.435031,53.0362374 139.596844,52.751355 140.930914,52.751355 C142.333879,52.751355 143.63035,53.0456292 144.820365,53.6341862 L144.012411,55.5031586 C143.548932,55.2840151 143.058841,55.0914846 142.542124,54.9255616 C142.025407,54.7596386 141.482079,54.6766784 140.912124,54.6766784 Z M159.751849,66.6794258 L157.149487,66.6794258 L152.837269,60.4620402 L151.512601,61.5420997 L151.512601,66.6794258 L149.267242,66.6794258 L149.267242,52.9485833 L151.512601,52.9485833 L151.512601,59.5040745 C152.126398,58.752725 152.737055,58.029562 153.344589,57.3345638 L157.055539,52.9485833 L159.610927,52.9485833 C157.212107,55.7661437 155.492874,57.7728428 154.453177,58.9687407 L159.751849,66.6794258 Z" id="ON-THE-BLOCK" fill="#000000"></path>
                <g id="Group" transform="translate(0.641352, 0.000000)" fill="#D0011B">
                    <path d="M23.3356049,17.0290074 C23.3356049,17.0290074 21.6040923,24.2030289 15.7997149,22.9596294 C11.3102485,21.9979069 12.2722771,17.6701557 12.2722771,17.6701557 C12.2722771,17.6701557 12.7670563,12.604563 18.3651243,9.49551459 C22.6942526,7.09120837 28.9952932,4.74246667 36.4833279,5.64862464 C44.2274113,6.58576811 48.373435,10.2075449 49.1500367,13.0218304 C50.4327414,17.6701557 47.7069939,22.158194 42.7365133,25.2346998 C40.1784982,26.8179971 33.7575805,27.4476677 33.7575805,27.4476677 C33.7575805,27.4476677 40.0063197,30.9553461 37.2850184,37.3854667 C33.7575805,45.720395 26.7027047,45.0792466 26.7027047,45.0792466 C26.7027047,45.0792466 20.9305337,45.0792466 20.7701956,39.789773 C20.6945803,37.295262 22.1163572,35.375018 24.7786477,34.3400122 C27.6647332,33.2180026 28.7870998,34.9811605 28.7870998,34.9811605 C28.7870998,34.9811605 26.2216905,38.3471892 29.9094664,38.3471892 C32.9558901,38.3471892 34.034843,35.7525083 34.719609,33.6988639 C36.4833279,28.4093902 28.4664237,27.6079548 28.4664237,27.6079548 C28.4664237,27.6079548 28.5340671,27.264934 28.4664237,26.9668065 C28.3987802,26.6686789 28.1361273,26.5829695 28.4664237,26.4859452 C30.1134187,26.0021421 32.7686047,26.1115917 35.8419756,24.5625002 C38.7102979,23.1167608 41.8686756,19.9415355 42.7365133,17.0290074 C44.9977989,9.43996346 36.643666,7.73235669 36.643666,7.73235669 C36.643666,7.73235669 26.2305408,6.29874193 20.9305337,12.220395 C18.2047862,15.2658495 19.662368,17.5255525 20.2891813,17.6701557 C22.3735764,18.151017 23.3356049,17.0290074 23.3356049,17.0290074 Z" id="Path"></path>
                    <path d="M6.9617216,30.4545455 C6.9617216,30.4545455 -0.797025645,31.3278332 0.0671839255,39.7511962 C0.708536267,46.0023923 7.12205968,45.361244 7.92375011,45.361244 C8.99319854,45.361244 12.0925403,45.2009569 14.8182878,41.8349282 C16.2092712,40.1172012 20.911135,33.8205742 24.9195872,28.0502392 C27.3564278,24.5423049 31.1833368,19.9327035 34.2191961,17.1507177 C36.1432531,15.3875598 37.746634,14.2655502 37.746634,14.2655502 L37.1052816,13.4641148 C37.1052816,13.4641148 32.7086786,15.7620966 27.9660108,19.5550239 C24.4281881,22.3843818 13.0545688,33.1794258 11.2908499,33.9808612 C9.65120987,34.7259151 7.92375011,34.4617225 7.12205968,33.6602871 C6.17769812,32.7162259 6.9617216,30.4545455 6.9617216,30.4545455 Z" id="Path-2"></path>
                    <path d="M39.443169,35.1246004 C39.443169,35.1246004 47.4966131,23.3632529 48.5824399,24.8662272 C50.666835,27.7513946 34.4649181,39.630631 41.367226,44.7418252 C45.6963543,47.9475669 53.2322443,38.1700549 53.2322443,38.1700549 C53.2322443,38.1700549 49.8651445,44.7418252 55.3166394,45.5432606 C60.4475498,46.2975663 68.7850386,34.0025908 68.7850386,34.0025908 L68.7850386,32.8805812 C68.7850386,32.8805812 63.814558,37.8494807 61.5698248,37.8494807 C58.3560035,37.8494807 68.7850386,23.2633563 68.7850386,23.2633563 L62.6921914,23.2633563 C62.6921914,23.2633563 53.6330896,38.330342 50.3461588,37.8494807 C44.8498078,37.0453926 60.7681344,25.8279496 52.2702158,22.9427822 C46.6070273,21.020047 38.4811405,34.9643133 38.4811405,34.9643133 L39.443169,35.1246004 Z" id="Path-3"></path>
                    <path d="M82.189985,34.7687919 C80.198276,36.62708 77.2102962,38.948643 75.4090084,38.1483254 C72.0751124,36.6670651 81.1811795,23.8827751 81.1811795,23.8827751 L85.830984,23.8827751 L86.6326744,22.7607656 L81.9828699,22.6004785 L89.1980838,12.5023923 C89.1980838,12.5023923 87.0694114,13.7788503 84.8689555,14.4258373 C82.9807903,14.9810034 81.0208414,14.9066986 81.0208414,14.9066986 L75.8900227,22.7607656 L72.0419086,22.7607656 L71.2402182,23.8827751 L74.9279942,24.0430622 C74.9279942,24.0430622 58.4131714,42.7966507 68.1937946,45.5215311 C74.399937,47.2505616 81.1811795,37.0263158 81.1811795,37.0263158 L81.4342066,36.8207967 C80.314201,40.5719146 80.8426805,43.9398778 84.5482793,45.2009569 C92.0841693,47.7655502 107.601826,26.0681702 107.797302,26.1267943 C109.400683,26.6076555 108.278316,24.0430622 108.278316,24.0430622 C108.278316,24.0430622 96.8943119,39.7511962 91.1221408,38.4688995 C85.9738682,37.3252029 93.8478883,23.2416268 98.6580308,23.2416268 C99.6200593,23.2416268 90.9270842,28.0217092 95.1305929,30.4545455 C98.1770166,32.2177033 103.000749,21.4784689 99.1390451,21.4784689 C97.9499418,21.4784689 92.8858597,21.1578947 87.4343648,26.9282297 C85.3507892,29.1336668 83.4044664,31.9706789 82.189985,34.7687919 Z M141.628638,21.638756 C144.186659,22.6104947 143.07168,25.8062201 139.704581,28.8516746 C136.337481,31.8971292 131.527338,33.9808612 131.527338,33.9808612 C131.527338,33.9808612 129.442943,38.1483254 133.130719,38.7894737 C139.006943,39.8111007 146.43878,26.1267943 146.43878,26.1267943 L147.400809,26.1267943 C147.400809,26.1267943 135.172368,47.5411513 127.358548,45.361244 C113.569473,41.5143541 133.611733,18.5933014 141.628638,21.638756 Z M132.168691,31.8971292 C132.168691,31.8971292 141.147623,26.2870813 140.666609,23.0813397 C139.223566,21.7990431 132.168691,31.8971292 132.168691,31.8971292 Z" id="Combined-Shape"></path>
                    <path d="M95.2408227,44.7550605 C95.2408227,44.7550605 97.7916303,40.8587064 101.173332,35.2981227 C103.34466,31.7277743 126.690218,-6.61220007 131.637568,0.996687293 C135.806358,7.40817055 115.122745,23.4368787 115.122745,23.4368787 L111.755645,29.0469265 C111.755645,29.0469265 118.215975,20.5140976 123.13965,22.3148691 C129.713511,24.7191753 116.587736,36.5877329 119.451874,37.5421418 C120.894916,38.0230031 131.156554,32.8938165 131.156554,32.8938165 L130.515201,33.5349648 C130.515201,33.5349648 118.810521,46.3579313 112.717674,45.0756347 C101.646438,42.7455895 122.818973,24.2383141 118.970859,24.2383141 C116.472161,24.2383141 110.828557,31.2645828 106.945503,36.9009935 C103.062449,42.5374043 102.13536,44.7550605 102.13536,44.7550605 L95.2408227,44.7550605 Z M116.565788,21.0325725 C116.565788,21.0325725 132.118582,6.76702222 130.194525,2.92013227 C129.161428,0.854595694 116.565788,21.0325725 116.565788,21.0325725 Z" id="Combined-Shape"></path>
                    <path d="M149.540498,24.7784256 C149.540498,24.7784256 155.116441,18.2341695 152.74726,17.4052198 C149.540498,16.2832102 143.312762,25.536413 146.975088,26.3812964 C149.059484,26.8621576 152.74726,25.2592868 152.74726,26.0607222 C152.74726,27.5278918 136.737471,40.958451 146.494074,44.9745978 C151.945569,47.2186169 159.962473,33.4339279 159.962473,33.4339279 L159.000445,33.2736409 C159.000445,33.2736409 155.633345,38.4028275 153.54895,37.6013921 C150.31286,36.357138 159.962473,28.6253155 158.519431,25.0989997 C157.176801,21.8180604 149.540498,24.7784256 149.540498,24.7784256 Z" id="Path-8"></path>
                </g>
            </g>
        </g>
    </g>
</svg>