<?xml version="1.0" encoding="UTF-8" standalone="no"?>
<svg width="70px" height="60px" viewBox="0 0 70 60" version="1.1" xmlns="http://www.w3.org/2000/svg" xmlns:xlink="http://www.w3.org/1999/xlink">
    <!-- Generator: Sketch 41.2 (35397) - http://www.bohemiancoding.com/sketch -->
    <title>logo</title>
    <desc>Created with Sketch.</desc>
    <defs></defs>
    <g id="Design" stroke="none" stroke-width="1" fill="none" fill-rule="evenodd">
        <g id="Homepage-Revised-Copy" transform="translate(-87.000000, -27.000000)" fill="#FFFFFF">
            <path d="M156.282032,57 L138.961524,87 L104.320508,87 L87,57 L104.320508,27 L138.961524,27 L156.282032,57 Z M136.772241,69.3338135 L136.772241,69.3154177 L105.741337,69.3154177 L105.741337,58.3372043 L110.881426,58.3372043 L110.881426,55.7354311 L105.741337,55.7354311 L105.741337,44.7572177 L137.001421,44.7572177 C138.053164,44.7572177 138.90577,45.6088222 138.90577,46.660066 L138.90577,49.3943251 C138.913794,49.3921621 138.921807,49.3899716 138.929809,49.3877539 L138.929809,50.7857164 L138.887217,50.7857164 L138.887217,54.213279 C138.887217,55.0539404 138.204199,55.7354311 137.363054,55.7354311 L115.069646,55.7354311 L115.069646,58.3372043 L136.391494,58.3372043 L136.391494,58.3346088 L137.362692,58.3346088 C138.203672,58.3346088 138.886556,59.0166342 138.886556,59.8579552 L138.886556,63.3503769 L138.929809,63.3503769 L138.929809,64.7071051 C138.921415,64.7047755 138.913008,64.7024758 138.904589,64.7002064 L138.904589,67.4299707 C138.904589,68.4810345 138.051983,69.3338135 137.00024,69.3338135 L136.772241,69.3338135 L136.772241,69.3338135 Z M132.110412,71.9171908 L103.139564,71.9171908 L103.139564,42.1554446 L105.709609,42.1554446 L134.614241,42.1554446 L137.978016,42.1554446 C139.940597,42.1554446 141.531582,43.7458981 141.531582,45.709325 L141.531582,54.5938412 C141.531582,55.7427267 140.768213,56.7132928 139.720326,57.0258596 C140.767583,57.338877 141.530402,58.309817 141.530402,59.4590895 L141.530402,60.050567 L141.531582,60.050567 L141.531582,68.3000916 L141.530402,68.3000916 L141.530402,68.3797134 C141.530402,70.3421263 139.939416,71.9336746 137.976836,71.9336746 L132.45506,71.9336746 C132.338782,71.9336746 132.223815,71.9280956 132.110412,71.9171908 L132.110412,71.9171908 Z M110.910611,63.0965453 L110.881426,63.0965453 L110.881426,51.1664637 L110.88404,51.1664637 C110.950794,49.5430353 112.287756,48.2474012 113.928297,48.2474012 L128.681176,48.2474012 L130.997944,48.2474012 C132.2945,48.2474012 133.345516,49.2986104 133.345516,50.5953428 C133.345516,50.6165624 133.345234,50.6377162 133.344675,50.6588006 L133.345516,50.6588006 L133.345516,53.3240316 L130.553369,53.3240316 L130.553369,51.5691416 C130.36779,51.1448025 129.994357,50.8213138 129.538043,50.7037129 L129.538043,50.7222585 L121.361861,50.7222585 C121.362764,50.7270312 121.36366,50.7318078 121.364544,50.7365883 L114.943036,50.7365883 C114.254196,50.7365883 113.671006,51.1950145 113.483199,51.8238234 L113.483199,62.1431222 C113.63477,62.6506074 114.043871,63.047115 114.558197,63.1812291 L125.478956,63.1812291 C125.47903,63.1794715 125.479105,63.1777142 125.479183,63.1759575 C125.486247,63.1777641 125.49333,63.1795215 125.500433,63.1812291 L129.514241,63.1812291 C129.981355,63.0688979 130.364574,62.7416243 130.553369,62.3099878 L130.553369,60.5582301 L133.345516,60.5582301 L133.345516,63.4772926 L133.338299,63.4772926 C133.241039,64.7551658 132.172853,65.7617763 130.870633,65.7617763 L127.951621,65.7617763 C127.795235,65.7617763 127.642237,65.7472755 127.493899,65.7195444 L113.928297,65.7195444 C112.388817,65.7195444 111.116667,64.578622 110.910611,63.0965453 L110.910611,63.0965453 Z" id="logo"></path>
        </g>
    </g>
</svg>