<?xml version="1.0" encoding="UTF-8" standalone="no"?>
<svg width="116px" height="100px" viewBox="0 0 116 100" version="1.1" xmlns="http://www.w3.org/2000/svg" xmlns:xlink="http://www.w3.org/1999/xlink">
    <!-- Generator: Sketch 41.2 (35397) - http://www.bohemiancoding.com/sketch -->
    <title>Group 2</title>
    <desc>Created with Sketch.</desc>
    <defs></defs>
    <g id="Page-1" stroke="none" stroke-width="1" fill="none" fill-rule="evenodd">
        <g id="Group-2">
            <polygon id="Polygon-2" fill="#4A4A4A" points="115.599379 49.9949405 86.7340147 99.805552 29.0032856 99.805552 0.13792103 49.9949405 29.0032856 0.184329054 86.7340147 0.184329054"></polygon>
            <path d="M83.0854815,70.4734335 L83.0854815,70.44289 L31.3711583,70.44289 L31.3711583,52.2151726 L39.9373345,52.2151726 L39.9373345,47.8953089 L31.3711583,47.8953089 L31.3711583,29.6675914 L83.4674188,29.6675914 C85.2201931,29.6675914 86.6410974,31.0815561 86.6410974,32.8269926 L86.6410974,37.36683 C86.6544706,37.3632385 86.667825,37.3596016 86.6811604,37.3559194 L86.6811604,39.6770317 L86.6101788,39.6770317 L86.6101788,45.3679979 C86.6101788,46.7637932 85.4718992,47.8953089 84.0700958,47.8953089 L46.9171818,47.8953089 L46.9171818,52.2151726 L82.4509499,52.2151726 L82.4509499,52.2108632 L84.0694932,52.2108632 C85.4710213,52.2108632 86.6090772,53.3432666 86.6090772,54.740157 L86.6090772,60.5388123 L86.6811604,60.5388123 L86.6811604,62.7914612 C86.6671711,62.7875931 86.6531609,62.7837749 86.63913,62.7800067 L86.63913,67.3123811 C86.63913,69.0575189 85.2182257,70.4734335 83.4654514,70.4734335 L83.0854815,70.4734335 L83.0854815,70.4734335 Z M75.3163438,74.7627537 L27.0351925,74.7627537 L27.0351925,25.3477277 L31.3182807,25.3477277 L79.4890815,25.3477277 L85.0949564,25.3477277 C88.3656804,25.3477277 91.0171261,27.9884432 91.0171261,31.2484264 L91.0171261,45.9998659 C91.0171261,47.9074221 89.7449379,49.5189052 87.9985906,50.0378765 C89.7438879,50.5575963 91.0151588,52.1697 91.0151588,54.077899 L91.0151588,55.0599608 L91.0171261,55.0599608 L91.0171261,68.7570896 L91.0151588,68.7570896 L91.0151588,68.88929 C91.0151588,72.1475895 88.363713,74.7901226 85.092989,74.7901226 L75.8907141,74.7901226 C75.6969327,74.7901226 75.5053357,74.7808595 75.3163438,74.7627537 L75.3163438,74.7627537 Z M39.9859733,60.1173622 L39.9373345,60.1173622 L39.9373345,40.3092068 L39.9416907,40.3092068 C40.0529402,37.6137414 42.281043,35.4625305 45.0150759,35.4625305 L69.6013771,35.4625305 L73.4623696,35.4625305 C75.6231344,35.4625305 77.3746973,37.2079097 77.3746973,39.3609441 C77.3746973,39.3961762 77.3742285,39.431299 77.3732967,39.4663066 L77.3746973,39.4663066 L77.3746973,43.8915328 L72.7214658,43.8915328 L72.7214658,40.9777946 C72.4121909,40.2732416 71.7898481,39.736136 71.0293816,39.5408769 L71.0293816,39.5716691 L57.4034259,39.5716691 C57.4049319,39.5795934 57.4064242,39.5875243 57.4078979,39.5954616 L46.7061806,39.5954616 C45.5582001,39.5954616 44.5862885,40.3566112 44.2733003,41.4006564 L44.2733003,58.5343425 C44.5258999,59.3769474 45.2076843,60.0352904 46.0648307,60.2579673 L64.2647399,60.2579673 C64.2648631,60.2550489 64.2649893,60.2521313 64.2651185,60.2492145 C64.2768907,60.2522142 64.2886958,60.255132 64.3005333,60.2579673 L70.9897151,60.2579673 C71.7681802,60.0714577 72.4068303,59.5280677 72.7214658,58.8113986 L72.7214658,55.9028611 L77.3746973,55.9028611 L77.3746973,60.7495374 L77.3626699,60.7495374 C77.2005825,62.8712588 75.4204043,64.5425884 73.2502001,64.5425884 L68.385542,64.5425884 C68.1249184,64.5425884 67.8699408,64.5185119 67.6227288,64.4724684 L45.0150759,64.4724684 C42.4494661,64.4724684 40.3293734,62.5781337 39.9859733,60.1173622 Z" id="Combined-Shape" fill="#FFFFFF"></path>
        </g>
    </g>
</svg>